<?xml version="1.0" encoding="iso-8859-1"?>
<!-- Generator: Adobe Illustrator 18.0.0, SVG Export Plug-In . SVG Version: 6.00 Build 0)  -->
<!DOCTYPE svg PUBLIC "-//W3C//DTD SVG 1.1//EN" "http://www.w3.org/Graphics/SVG/1.1/DTD/svg11.dtd">
<svg version="1.1" id="Capa_1" xmlns="http://www.w3.org/2000/svg" xmlns:xlink="http://www.w3.org/1999/xlink" x="0px" y="0px"
	 viewBox="0 0 400.451 400.451" style="enable-background:new 0 0 400.451 400.451;" xml:space="preserve">
<path style="fill:#231F20;" d="M247.8,140.655c-6.683-8.545-10.463-13.664-10.463-19.536V48.24c2.24-1.834,3.672-4.619,3.672-7.741
	V10c0-5.523-4.478-10-10-10h-62.891c-5.522,0-10,4.477-10,10v30.5c0,3.698,2.012,6.918,4.996,8.649v71.971
	c0,5.872-3.78,10.992-10.463,19.536c-10.315,13.19-24.443,31.255-24.443,64.806V361c0,29.02,21.03,38.472,32.15,39.415
	c0.281,0.025,0.564,0.036,0.846,0.036h78.043c0.282,0,0.564-0.012,0.846-0.036c11.12-0.943,32.15-10.396,32.15-39.415V205.461
	C272.243,171.91,258.115,153.845,247.8,140.655z M148.208,280.5V245h104.035v35.5H148.208z M208.76,300.5
	c-1.764,8.543-6.093,13.846-9.196,13.846s-7.433-5.303-9.196-13.846H208.76z M190.367,225c1.764-8.543,6.093-13.845,9.196-13.845
	s7.433,5.302,9.196,13.845H190.367z M168.406,152.976c7.23-9.246,14.708-18.807,14.708-31.857V50.5h34.223v70.62
	c0,13.05,7.478,22.611,14.708,31.857c9.468,12.105,20.198,25.826,20.198,52.485V225h-23.209
	c-2.6-19.507-14.609-33.845-29.471-33.845c-14.861,0-26.871,14.338-29.471,33.845h-21.885v-19.539
	C148.208,178.802,158.939,165.081,168.406,152.976z M238.637,380.451h-76.822c-3.651-0.529-13.606-3.452-13.606-19.451v-60.5h21.885
	c2.6,19.508,14.609,33.846,29.471,33.846c14.861,0,26.871-14.338,29.471-33.846h23.209V361
	C252.243,376.999,242.288,379.922,238.637,380.451z"/>
<g>
</g>
<g>
</g>
<g>
</g>
<g>
</g>
<g>
</g>
<g>
</g>
<g>
</g>
<g>
</g>
<g>
</g>
<g>
</g>
<g>
</g>
<g>
</g>
<g>
</g>
<g>
</g>
<g>
</g>
</svg>
